<svg xmlns="http://www.w3.org/2000/svg" width="335.86" height="439.161" viewBox="0 0 335.86 439.161">
  <g id="Group_221" data-name="Group 221" transform="translate(-34.327 -69.292)">
    <g id="Group_140" data-name="Group 140" transform="translate(126.349 479.583)">
      <path id="Path_26" data-name="Path 26" d="M4392.09,193.1c-6.057,0-10.6-7.391-10.793-7.705l-.57-.943.57-.943c.191-.315,4.736-7.705,10.793-7.705v3.641c-2,0-3.95,1.559-5.23,2.867a19.85,19.85,0,0,0-1.81,2.146c1.42,1.949,4.239,5,7.04,5Z" transform="translate(-4380.727 -175.807)" fill="#cedad5"/>
    </g>
    <g id="Group_168" data-name="Group 168" transform="translate(358.825 312.881)">
      <path id="Path_26-2" data-name="Path 26" d="M4392.09,193.1c-6.057,0-10.6-7.391-10.793-7.705l-.57-.943.57-.943c.191-.315,4.736-7.705,10.793-7.705v3.641c-2,0-3.95,1.559-5.23,2.867a19.85,19.85,0,0,0-1.81,2.146c1.42,1.949,4.239,5,7.04,5Z" transform="translate(-4380.727 -175.807)" fill="#cedad5"/>
    </g>
    <g id="Group_147" data-name="Group 147" transform="translate(246.978 399.555)">
      <path id="Path_26-3" data-name="Path 26" d="M4392.09,193.1c-6.057,0-10.6-7.391-10.793-7.705l-.57-.943.57-.943c.191-.315,4.736-7.705,10.793-7.705v3.641c-2,0-3.95,1.559-5.23,2.867a19.85,19.85,0,0,0-1.81,2.146c1.42,1.949,4.239,5,7.04,5Z" transform="translate(-4380.727 -175.807)" fill="#cedad5"/>
    </g>
    <g id="Group_141" data-name="Group 141" transform="translate(138.993 491.157)">
      <path id="Path_29" data-name="Path 29" d="M4406.95,206.705c-6.056,0-10.6-7.391-10.792-7.705l-.571-.943.571-.943c.191-.315,4.736-7.705,10.792-7.705v3.641c-2.8,0-5.623,3.057-7.042,5.007,1.418,1.949,4.238,5.008,7.042,5.008Z" transform="translate(-4395.587 -189.409)" fill="#cedad5"/>
    </g>
    <g id="Group_138" data-name="Group 138" transform="translate(138.541 213.314)">
      <path id="Path_26-4" data-name="Path 26" d="M4392.09,193.1c-6.057,0-10.6-7.391-10.793-7.705l-.57-.943.57-.943c.191-.315,4.736-7.705,10.793-7.705v3.641c-2,0-3.95,1.559-5.23,2.867a19.85,19.85,0,0,0-1.81,2.146c1.42,1.949,4.239,5,7.04,5Z" transform="translate(-4380.727 -175.807)" fill="#cedad5"/>
    </g>
    <g id="Group_139" data-name="Group 139" transform="translate(330.743 102.236)">
      <path id="Path_26-5" data-name="Path 26" d="M4392.09,193.1c-6.057,0-10.6-7.391-10.793-7.705l-.57-.943.57-.943c.191-.315,4.736-7.705,10.793-7.705v3.641c-2,0-3.95,1.559-5.23,2.867a19.85,19.85,0,0,0-1.81,2.146c1.42,1.949,4.239,5,7.04,5Z" transform="translate(-4380.727 -175.807)" fill="#cedad5"/>
    </g>
    <g id="Group_137" data-name="Group 137" transform="translate(34.327 69.292)">
      <path id="Path_26-6" data-name="Path 26" d="M4392.09,193.1c-6.057,0-10.6-7.391-10.793-7.705l-.57-.943.57-.943c.191-.315,4.736-7.705,10.793-7.705v3.641c-2,0-3.95,1.559-5.23,2.867a19.85,19.85,0,0,0-1.81,2.146c1.42,1.949,4.239,5,7.04,5Z" transform="translate(-4380.727 -175.807)" fill="#cedad5"/>
    </g>
  </g>
</svg>
