<svg xmlns="http://www.w3.org/2000/svg" width="1285.209" height="663.263" viewBox="0 0 1285.209 663.263">
  <g id="Group_221" data-name="Group 221" transform="translate(-34.327 -39.555)">
    <g id="Group_140" data-name="Group 140" transform="translate(917.327 656.555)">
      <path id="Path_26" data-name="Path 26" d="M4398.936,203.524c-9.706,0-16.989-11.843-17.295-12.348l-.915-1.511.915-1.511c.306-.5,7.589-12.348,17.295-12.348v5.834c-3.208,0-6.33,2.5-8.381,4.594a31.876,31.876,0,0,0-2.9,3.439c2.276,3.124,6.793,8.016,11.281,8.016Z" transform="translate(-4380.726 -175.807)" fill="#cedad5"/>
    </g>
    <g id="Group_168" data-name="Group 168" transform="translate(554.327 477.555)">
      <path id="Path_26-2" data-name="Path 26" d="M4398.936,203.524c-9.706,0-16.989-11.843-17.295-12.348l-.915-1.511.915-1.511c.306-.5,7.589-12.348,17.295-12.348v5.834c-3.208,0-6.33,2.5-8.381,4.594a31.876,31.876,0,0,0-2.9,3.439c2.276,3.124,6.793,8.016,11.281,8.016Z" transform="translate(-4380.726 -175.807)" fill="#cedad5"/>
    </g>
    <g id="Group_147" data-name="Group 147" transform="translate(1301.327 39.555)">
      <path id="Path_26-3" data-name="Path 26" d="M4398.936,203.524c-9.706,0-16.989-11.843-17.295-12.348l-.915-1.511.915-1.511c.306-.5,7.589-12.348,17.295-12.348v5.834c-3.208,0-6.33,2.5-8.381,4.594a31.876,31.876,0,0,0-2.9,3.439c2.276,3.124,6.793,8.016,11.281,8.016Z" transform="translate(-4380.726 -175.807)" fill="#cedad5"/>
    </g>
    <g id="Group_141" data-name="Group 141" transform="translate(937.59 675.101)">
      <path id="Path_29" data-name="Path 29" d="M4413.8,217.126c-9.705,0-16.989-11.843-17.295-12.348l-.915-1.511.915-1.511c.306-.5,7.59-12.348,17.295-12.348v5.834c-4.491,0-9.011,4.9-11.285,8.024,2.272,3.124,6.792,8.026,11.285,8.026Z" transform="translate(-4395.587 -189.409)" fill="#cedad5"/>
    </g>
    <g id="Group_138" data-name="Group 138" transform="translate(201.327 318)">
      <path id="Path_26-4" data-name="Path 26" d="M4398.936,203.524c-9.706,0-16.989-11.843-17.295-12.348l-.915-1.511.915-1.511c.306-.5,7.589-12.348,17.295-12.348v5.834c-3.208,0-6.33,2.5-8.381,4.594a31.876,31.876,0,0,0-2.9,3.439c2.276,3.124,6.793,8.016,11.281,8.016Z" transform="translate(-4380.726 -175.807)" fill="#cedad5"/>
    </g>
    <g id="Group_139" data-name="Group 139" transform="translate(509.327 140)">
      <path id="Path_26-5" data-name="Path 26" d="M4398.936,203.524c-9.706,0-16.989-11.843-17.295-12.348l-.915-1.511.915-1.511c.306-.5,7.589-12.348,17.295-12.348v5.834c-3.208,0-6.33,2.5-8.381,4.594a31.876,31.876,0,0,0-2.9,3.439c2.276,3.124,6.793,8.016,11.281,8.016Z" transform="translate(-4380.726 -175.807)" fill="#cedad5"/>
    </g>
    <g id="Group_137" data-name="Group 137" transform="translate(34.327 87.208)">
      <path id="Path_26-6" data-name="Path 26" d="M4398.936,203.524c-9.706,0-16.989-11.843-17.295-12.348l-.915-1.511.915-1.511c.306-.5,7.589-12.348,17.295-12.348v5.834c-3.208,0-6.33,2.5-8.381,4.594a31.876,31.876,0,0,0-2.9,3.439c2.276,3.124,6.793,8.016,11.281,8.016Z" transform="translate(-4380.726 -175.807)" fill="#cedad5"/>
    </g>
  </g>
</svg>
