<svg xmlns="http://www.w3.org/2000/svg" width="91.857" height="84.748" viewBox="0 0 91.857 84.748">
  <g id="Group_184" data-name="Group 184" transform="translate(-49.327 -456)">
    <g id="Group_177" data-name="Group 177" transform="translate(49.327 456)">
      <path id="Path_26" data-name="Path 26" d="M4395.757,198.686c-8.012,0-14.024-9.776-14.276-10.192l-.755-1.247.755-1.247c.252-.416,6.264-10.192,14.276-10.192v4.816c-2.648,0-5.225,2.062-6.919,3.792a26.381,26.381,0,0,0-2.394,2.838c1.879,2.578,5.607,6.617,9.313,6.617Z" transform="translate(-4380.726 -175.807)" fill="#fff"/>
    </g>
    <g id="Group_178" data-name="Group 178" transform="translate(66.052 471.308)">
      <path id="Path_29" data-name="Path 29" d="M4410.618,212.288c-8.011,0-14.024-9.776-14.276-10.192l-.755-1.247.755-1.247c.252-.416,6.266-10.192,14.276-10.192v4.816c-3.708,0-7.438,4.044-9.315,6.623,1.875,2.578,5.606,6.625,9.315,6.625Z" transform="translate(-4395.587 -189.409)" fill="#fff"/>
    </g>
    <g id="Group_179" data-name="Group 179" transform="translate(52.102 480.182)">
      <path id="Path_30" data-name="Path 30" d="M4383.192,220.172v-4.816c2.648,0,5.225-2.062,6.918-3.792a26.28,26.28,0,0,0,2.394-2.838c-1.878-2.578-5.607-6.617-9.312-6.617v-4.816c8.011,0,14.023,9.776,14.276,10.192l.757,1.247-.757,1.247C4397.215,210.4,4391.2,220.172,4383.192,220.172Z" transform="translate(-4383.192 -197.293)" fill="#fff"/>
    </g>
    <g id="Group_180" data-name="Group 180" transform="translate(51.379 508.882)">
      <path id="Path_33" data-name="Path 33" d="M4382.549,231.856a10.254,10.254,0,0,1,1.173-5.062,7.426,7.426,0,0,1,3.025-3.051,9.537,9.537,0,0,1,8.3,0,7.268,7.268,0,0,1,3.024,3.051,11.479,11.479,0,0,1,0,10.114,7.262,7.262,0,0,1-3.024,3.049,9.64,9.64,0,0,1-8.3,0,7.42,7.42,0,0,1-3.025-3.049A10.252,10.252,0,0,1,4382.549,231.856Zm3.347,0a6.336,6.336,0,0,0,1.42,4.5,4.982,4.982,0,0,0,7.162,0,7.786,7.786,0,0,0,0-9,4.982,4.982,0,0,0-7.162,0A6.369,6.369,0,0,0,4385.9,231.856Z" transform="translate(-4382.549 -222.793)" fill="#fff"/>
      <path id="Path_34" data-name="Path 34" d="M4399.381,233.774a6.608,6.608,0,0,1,1.741-4.717,6.93,6.93,0,0,1,9.459,0,7.22,7.22,0,0,1,0,9.434,6.964,6.964,0,0,1-9.459,0A6.593,6.593,0,0,1,4399.381,233.774Zm3.285,0a4.371,4.371,0,0,0,.864,2.766,2.96,2.96,0,0,0,4.643,0,4.856,4.856,0,0,0,0-5.532,2.958,2.958,0,0,0-4.643,0A4.368,4.368,0,0,0,4402.667,233.774Z" transform="translate(-4380.438 -222.241)" fill="#fff"/>
      <path id="Path_35" data-name="Path 35" d="M4413.463,238.854a3.145,3.145,0,0,1,.915-4.643,4.037,4.037,0,0,1-.89-2.631,3.956,3.956,0,0,1,1.333-3.124,4.888,4.888,0,0,1,3.347-1.185,5.16,5.16,0,0,1,2.346.556l2.407-1.259,1.236,2.074-1.815.914a4.073,4.073,0,0,1,.506,2.025,3.859,3.859,0,0,1-1.345,3.1,4.929,4.929,0,0,1-3.334,1.149,6.2,6.2,0,0,1-1.853-.284,1.063,1.063,0,0,0-.6.962c0,.63.394.939,1.185.939h2.605a5.068,5.068,0,0,1,3.259.976,3.331,3.331,0,0,1,1.224,2.765,3.7,3.7,0,0,1-.889,2.52,4.911,4.911,0,0,1-2.135,1.444,8.486,8.486,0,0,1-2.767.432,7.269,7.269,0,0,1-4.162-1.086,3.535,3.535,0,0,1-1.6-3.112A3.286,3.286,0,0,1,4413.463,238.854Zm4.73,4.1c1.765,0,2.654-.52,2.654-1.569,0-.877-.678-1.309-2.05-1.309h-1.716a9.826,9.826,0,0,1-1.47-.1,2.058,2.058,0,0,0-.282,1.16C4415.329,242.324,4416.463,242.954,4418.193,242.954Zm-.037-9.658a1.67,1.67,0,0,0,1.753-1.716,1.747,1.747,0,1,0-3.494,0A1.673,1.673,0,0,0,4418.157,233.3Z" transform="translate(-4378.8 -222.319)" fill="#fff"/>
      <path id="Path_36" data-name="Path 36" d="M4425.271,233.441a6.36,6.36,0,0,1,3.927-1.136h2.125v-.556c0-1.247-.743-1.877-2.225-1.865a2.088,2.088,0,0,0-2.2,1.457l-2.654-.605a4.067,4.067,0,0,1,1.617-2.568,5.247,5.247,0,0,1,3.234-.976q5.355,0,5.359,5.347v7.607h-2.579l-.322-1.617a4.852,4.852,0,0,1-3.926,1.814,3.954,3.954,0,0,1-2.779-1,3.713,3.713,0,0,1-1.087-2.864A3.614,3.614,0,0,1,4425.271,233.441Zm3.1,4.223a3.153,3.153,0,0,0,2.05-.728,2.318,2.318,0,0,0,.9-1.9v-.246h-2.1c-1.445,0-2.173.544-2.173,1.642A1.209,1.209,0,0,0,4428.369,237.663Z" transform="translate(-4377.377 -222.241)" fill="#fff"/>
      <path id="Path_37" data-name="Path 37" d="M4436.175,227.4h3.137v2.074a4.492,4.492,0,0,1,3.767-2.285,5.228,5.228,0,0,1,1.543.26l-.581,2.9a2.483,2.483,0,0,0-1.32-.346,2.939,2.939,0,0,0-2.458,1.358,7.5,7.5,0,0,0-.951,4.248v4.532h-3.137Z" transform="translate(-4375.82 -222.241)" fill="#fff"/>
      <path id="Path_38" data-name="Path 38" d="M4444.838,227.954h1.976v-3.186l3.136-1.975v5.161h3.358v2.68h-3.358v5.507c0,1.519.543,2.074,1.667,2.074a2.617,2.617,0,0,0,1.209-.3l.728,2.531a4.769,4.769,0,0,1-2.074.445c-2.926-.012-4.667-1.593-4.667-4.7v-5.557h-1.976Z" transform="translate(-4374.734 -222.793)" fill="#fff"/>
      <path id="Path_39" data-name="Path 39" d="M4456.323,235.564a2.675,2.675,0,0,0,2.557,2.1c1.049,0,1.567-.457,1.567-1.357.074-.63-.642-.988-1.383-1.273-.221-.087-.518-.209-.89-.333s-.677-.248-.913-.346a5.092,5.092,0,0,1-1.9-1.284,3.19,3.19,0,0,1-.68-2.161,3.532,3.532,0,0,1,1.137-2.63,4.082,4.082,0,0,1,2.939-1.087,4.794,4.794,0,0,1,2.32.581,4.486,4.486,0,0,1,1.68,1.494l-1.877,1.729a2.607,2.607,0,0,0-2.123-1.111,1.058,1.058,0,0,0-1.161,1.062c0,.519.408.926,1.209,1.235.1.037.408.147.915.321s.877.3,1.086.383a8.24,8.24,0,0,1,.926.469,3.279,3.279,0,0,1,.889.68,3.408,3.408,0,0,1,.53.863,2.731,2.731,0,0,1,.26,1.2,4.086,4.086,0,0,1-1.259,3.013,4.433,4.433,0,0,1-3.272,1.235,5.026,5.026,0,0,1-3.16-1.024,5.759,5.759,0,0,1-1.891-2.409Z" transform="translate(-4373.605 -222.241)" fill="#fff"/>
    </g>
    <g id="Group_181" data-name="Group 181" transform="translate(52.052 533.63)">
      <path id="Path_40" data-name="Path 40" d="M4383.147,245.029h2.118a3.2,3.2,0,0,1,2.166.8,3.885,3.885,0,0,1,0,5.16,3.2,3.2,0,0,1-2.166.8h-2.118Zm1.722,5.6a2.6,2.6,0,0,0,1.529-.434,2.529,2.529,0,0,0,0-3.576,2.587,2.587,0,0,0-1.529-.434h-.461v4.445Z" transform="translate(-4383.147 -244.751)" fill="#fff"/>
      <path id="Path_41" data-name="Path 41" d="M4389,246.723h1.2v.792a1.713,1.713,0,0,1,1.438-.872,1.985,1.985,0,0,1,.59.1l-.222,1.109a.941.941,0,0,0-.5-.133,1.126,1.126,0,0,0-.939.519,2.875,2.875,0,0,0-.362,1.623v1.732H4389Z" transform="translate(-4382.413 -244.549)" fill="#fff"/>
      <path id="Path_42" data-name="Path 42" d="M4392.009,250.464a.812.812,0,1,1,1.623,0,.773.773,0,0,1-.232.576.811.811,0,0,1-1.391-.576Z" transform="translate(-4382.035 -244.171)" fill="#fff"/>
      <path id="Path_43" data-name="Path 43" d="M4396.245,249.86c.11.566.394.854.85.854.582,0,.9-.312.9-1.16v-4.524h1.255v4.387a2.668,2.668,0,0,1-.552,1.887,2.133,2.133,0,0,1-1.6.566,2.163,2.163,0,0,1-1.429-.463,1.943,1.943,0,0,1-.656-1.283Z" transform="translate(-4381.66 -244.751)" fill="#fff"/>
      <path id="Path_44" data-name="Path 44" d="M4399.854,249.157a2.525,2.525,0,0,1,.666-1.8,2.649,2.649,0,0,1,3.615,0,2.76,2.76,0,0,1,0,3.6,2.661,2.661,0,0,1-3.615,0A2.521,2.521,0,0,1,4399.854,249.157Zm1.254,0a1.677,1.677,0,0,0,.331,1.057,1.131,1.131,0,0,0,1.773,0,1.852,1.852,0,0,0,0-2.114,1.129,1.129,0,0,0-1.773,0A1.677,1.677,0,0,0,4401.107,249.157Z" transform="translate(-4381.051 -244.549)" fill="#fff"/>
      <path id="Path_45" data-name="Path 45" d="M4405.319,244.962h1.2V251.8h-1.2Z" transform="translate(-4380.365 -244.759)" fill="#fff"/>
      <path id="Path_46" data-name="Path 46" d="M4407.513,245.555a.748.748,0,0,1,.222-.551.763.763,0,0,1,.551-.222.76.76,0,0,1,.775.773.76.76,0,0,1-.223.551.749.749,0,0,1-.552.222.758.758,0,0,1-.773-.773Zm.175,1.4h1.2v4.869h-1.2Z" transform="translate(-4380.09 -244.782)" fill="#fff"/>
      <path id="Path_47" data-name="Path 47" d="M4413.828,247.454a2.718,2.718,0,0,1,.522,1.594v.5H4411a1.175,1.175,0,0,0,.321.773,1.078,1.078,0,0,0,.83.325,1.318,1.318,0,0,0,1.178-.75l.968.353a2.219,2.219,0,0,1-2.212,1.42,2.187,2.187,0,0,1-1.807-.826,2.931,2.931,0,0,1,0-3.369,2.189,2.189,0,0,1,1.807-.829A2.113,2.113,0,0,1,4413.828,247.454Zm-.705,1.141a1,1,0,0,0-1.041-.925.989.989,0,0,0-.708.269,1.135,1.135,0,0,0-.349.656Z" transform="translate(-4379.81 -244.549)" fill="#fff"/>
      <path id="Path_48" data-name="Path 48" d="M4414.9,246.723h1.2v.783a1.8,1.8,0,0,1,1.5-.863,1.548,1.548,0,0,1,1.085.377,1.394,1.394,0,0,1,.415,1.1v3.477h-1.2v-3.123c0-.533-.23-.8-.7-.8a.935.935,0,0,0-.787.533,2.785,2.785,0,0,0-.32,1.444v1.944h-1.2Z" transform="translate(-4379.164 -244.549)" fill="#fff"/>
      <path id="Path_49" data-name="Path 49" d="M4421.741,245.029h2.476a2.041,2.041,0,0,1,1.406.467,1.723,1.723,0,0,1,.524,1.358,1.367,1.367,0,0,1-.666,1.25,1.611,1.611,0,0,1,1.014,1.651,1.917,1.917,0,0,1-.594,1.509,2.367,2.367,0,0,1-1.638.529h-2.522Zm2.406,2.628c.528,0,.792-.2.792-.732s-.271-.736-.821-.736H4423v1.468Zm0,2.977q1.088,0,1.088-.906c.005-.609-.358-.911-1.088-.911H4423v1.817Z" transform="translate(-4378.305 -244.751)" fill="#fff"/>
      <path id="Path_50" data-name="Path 50" d="M4426.812,249.157a2.523,2.523,0,0,1,.665-1.8,2.648,2.648,0,0,1,3.614,0,2.758,2.758,0,0,1,0,3.6,2.66,2.66,0,0,1-3.614,0A2.52,2.52,0,0,1,4426.812,249.157Zm1.254,0a1.677,1.677,0,0,0,.331,1.057,1.131,1.131,0,0,0,1.773,0,1.852,1.852,0,0,0,0-2.114,1.129,1.129,0,0,0-1.773,0A1.677,1.677,0,0,0,4428.066,249.157Z" transform="translate(-4377.668 -244.549)" fill="#fff"/>
      <path id="Path_51" data-name="Path 51" d="M4436.1,247.454a2.71,2.71,0,0,1,.524,1.594v.5h-3.354a1.194,1.194,0,0,0,.321.773,1.085,1.085,0,0,0,.83.325,1.322,1.322,0,0,0,1.181-.75l.966.353a2.217,2.217,0,0,1-2.212,1.42,2.189,2.189,0,0,1-1.807-.826,2.927,2.927,0,0,1,0-3.369,2.191,2.191,0,0,1,1.807-.829A2.111,2.111,0,0,1,4436.1,247.454Zm-.7,1.141a1.006,1.006,0,0,0-1.043-.925.986.986,0,0,0-.708.269,1.145,1.145,0,0,0-.35.656Z" transform="translate(-4377.015 -244.549)" fill="#fff"/>
      <path id="Path_52" data-name="Path 52" d="M4441.478,248.034l-1.07.434a1.234,1.234,0,0,0-1.143-.8.961.961,0,0,0-.839.411,2.185,2.185,0,0,0,0,2.152.96.96,0,0,0,.839.41,1.246,1.246,0,0,0,1.143-.8l1.07.433a2.159,2.159,0,0,1-2.213,1.392,2.2,2.2,0,0,1-1.759-.712,2.924,2.924,0,0,1,0-3.595,2.2,2.2,0,0,1,1.759-.717A2.158,2.158,0,0,1,4441.478,248.034Z" transform="translate(-4376.404 -244.549)" fill="#fff"/>
      <path id="Path_53" data-name="Path 53" d="M4441.96,244.962h1.2v3.883l1.585-1.911h1.476l-1.954,2.241,2.083,2.628h-1.473l-1.717-2.3v2.3h-1.2Z" transform="translate(-4375.768 -244.759)" fill="#fff"/>
      <path id="Path_54" data-name="Path 54" d="M4446.83,249.03a2.424,2.424,0,0,1,1.5-.434h.812v-.213c0-.476-.284-.717-.85-.712a.8.8,0,0,0-.839.557l-1.015-.231a1.56,1.56,0,0,1,.618-.981,2.006,2.006,0,0,1,1.236-.373,1.808,1.808,0,0,1,2.048,2.043v2.906h-.987l-.123-.618a1.853,1.853,0,0,1-1.5.693,1.511,1.511,0,0,1-1.062-.383,1.418,1.418,0,0,1-.414-1.094A1.377,1.377,0,0,1,4446.83,249.03Zm1.183,1.613a1.207,1.207,0,0,0,.784-.278.888.888,0,0,0,.345-.727v-.093h-.8c-.551,0-.829.207-.829.627A.461.461,0,0,0,4448.013,250.643Z" transform="translate(-4375.229 -244.549)" fill="#fff"/>
      <path id="Path_55" data-name="Path 55" d="M4454.9,247.454a2.708,2.708,0,0,1,.525,1.594v.5h-3.355a1.186,1.186,0,0,0,.321.773,1.084,1.084,0,0,0,.83.325,1.319,1.319,0,0,0,1.18-.75l.966.353a2.217,2.217,0,0,1-2.212,1.42,2.187,2.187,0,0,1-1.806-.826,2.925,2.925,0,0,1,0-3.369,2.189,2.189,0,0,1,1.806-.829A2.11,2.11,0,0,1,4454.9,247.454Zm-.7,1.141a1.006,1.006,0,0,0-1.044-.925.986.986,0,0,0-.706.269,1.133,1.133,0,0,0-.349.656Z" transform="translate(-4374.657 -244.549)" fill="#fff"/>
      <path id="Path_56" data-name="Path 56" d="M4455.977,246.723h1.2v.792a1.715,1.715,0,0,1,1.438-.872,2,2,0,0,1,.591.1l-.222,1.109a.95.95,0,0,0-.505-.133,1.129,1.129,0,0,0-.939.519,2.867,2.867,0,0,0-.362,1.623v1.732h-1.2Z" transform="translate(-4374.009 -244.549)" fill="#fff"/>
      <path id="Path_57" data-name="Path 57" d="M4459.383,246.934h.755v-1.217l1.2-.755v1.972h1.283v1.024h-1.283v2.1c0,.581.207.792.637.792a1,1,0,0,0,.462-.113l.277.967a1.82,1.82,0,0,1-.792.17,1.617,1.617,0,0,1-1.784-1.8v-2.123h-.755Z" transform="translate(-4373.582 -244.759)" fill="#fff"/>
    </g>
  </g>
</svg>
