<svg xmlns="http://www.w3.org/2000/svg" width="38.472" height="57.013" viewBox="0 0 38.472 57.013">
  <g id="Group_183" data-name="Group 183" transform="translate(-22.327 -681.555)">
    <g id="Group_143" data-name="Group 143" transform="translate(22.327 681.555)">
      <path id="Path_26" data-name="Path 26" d="M4398.936,203.524c-9.706,0-16.989-11.843-17.295-12.348l-.915-1.511.915-1.511c.306-.5,7.589-12.348,17.295-12.348v5.834c-3.208,0-6.33,2.5-8.381,4.594a31.876,31.876,0,0,0-2.9,3.439c2.276,3.124,6.793,8.016,11.281,8.016Z" transform="translate(-4380.726 -175.807)" fill="#cedad5"/>
    </g>
    <g id="Group_144" data-name="Group 144" transform="translate(42.59 700.101)">
      <path id="Path_29" data-name="Path 29" d="M4413.8,217.126c-9.705,0-16.989-11.843-17.295-12.348l-.915-1.511.915-1.511c.306-.5,7.59-12.348,17.295-12.348v5.834c-4.491,0-9.011,4.9-11.285,8.024,2.272,3.124,6.792,8.026,11.285,8.026Z" transform="translate(-4395.587 -189.409)" fill="#cedad5"/>
    </g>
    <g id="Group_145" data-name="Group 145" transform="translate(25.689 710.851)">
      <path id="Path_30" data-name="Path 30" d="M4383.192,225.01v-5.834c3.208,0,6.33-2.5,8.381-4.594a31.779,31.779,0,0,0,2.9-3.439c-2.275-3.124-6.793-8.016-11.282-8.016v-5.834c9.706,0,16.989,11.843,17.295,12.348l.916,1.511-.916,1.511C4400.181,213.167,4392.9,225.01,4383.192,225.01Z" transform="translate(-4383.192 -197.293)" fill="#cedad5"/>
    </g>
  </g>
</svg>
