<svg xmlns="http://www.w3.org/2000/svg" width="64.759" height="95.964" viewBox="0 0 64.759 95.964">
  <g id="Group_217" data-name="Group 217" transform="translate(-253.239 -313.85)">
    <g id="Group_214" data-name="Group 214" transform="translate(253.239 313.85)">
      <path id="Path_113" data-name="Path 113" d="M283.89,360.5c-16.336,0-28.6-19.934-29.111-20.783l-1.54-2.543,1.54-2.544c.514-.849,12.774-20.783,29.111-20.783v9.819c-5.4,0-10.652,4.206-14.107,7.733a53.546,53.546,0,0,0-4.882,5.787c3.831,5.259,11.433,13.494,18.989,13.494Z" transform="translate(-253.239 -313.85)" fill="#00250c"/>
    </g>
    <g id="Group_215" data-name="Group 215" transform="translate(287.347 345.068)">
      <path id="Path_114" data-name="Path 114" d="M325.12,398.24c-16.336,0-28.6-19.934-29.11-20.783l-1.54-2.543,1.54-2.543c.514-.849,12.773-20.784,29.11-20.784v9.819c-7.561,0-15.168,8.246-19,13.507,3.826,5.257,11.435,13.506,19,13.506Z" transform="translate(-294.47 -351.587)" fill="#00250c"/>
    </g>
    <g id="Group_216" data-name="Group 216" transform="translate(258.9 363.161)">
      <path id="Path_115" data-name="Path 115" d="M260.082,420.112v-9.819c5.4,0,10.653-4.2,14.107-7.733a53.478,53.478,0,0,0,4.882-5.787c-3.831-5.258-11.433-13.493-18.989-13.493v-9.819c16.336,0,28.6,19.934,29.111,20.783l1.54,2.543-1.54,2.544C288.679,400.177,276.418,420.112,260.082,420.112Z" transform="translate(-260.082 -373.459)" fill="#00250c"/>
    </g>
  </g>
</svg>
